<svg xmlns="http://www.w3.org/2000/svg" aria-label="Fresenius Kabi" class="cliente-logo-svg" viewBox="0 0 520 170"><title>Fresenius Kabi</title><g fill="#0066b3"><path d="M42 25c-2 21 3 33 15 45 9 9 12 20 9 42H54c3-18 0-26-9-35-14-14-18-30-15-52ZM69 25c-2 21 3 33 15 45 9 9 12 20 9 42H81c3-18 0-26-9-35-14-14-18-30-15-52ZM96 25c-2 21 3 33 15 45 9 9 12 20 9 42h-12c3-18 0-26-9-35-14-14-18-30-15-52Z"/><text x="150" y="70" font-family="Arial, Helvetica, sans-serif" font-size="43" font-weight="800" letter-spacing="0">
      FRESENIUS
    </text><text x="150" y="120" font-family="Arial, Helvetica, sans-serif" font-size="43" font-weight="800" letter-spacing="0">
      KABI
    </text></g></svg>