<svg class="cliente-logo-svg" xmlns="http://www.w3.org/2000/svg" viewBox="0 0 520 170" role="img" aria-label="Fresenius Kabi">
  <title>Fresenius Kabi</title>

  <g fill="#0066B3">
    <!-- Icono Fresenius Kabi recreado en vector -->
    <path d="M42 25 C40 46 45 58 57 70 C66 79 69 90 66 112 L54 112 C57 94 54 86 45 77 C31 63 27 47 30 25 Z"/>
    <path d="M69 25 C67 46 72 58 84 70 C93 79 96 90 93 112 L81 112 C84 94 81 86 72 77 C58 63 54 47 57 25 Z"/>
    <path d="M96 25 C94 46 99 58 111 70 C120 79 123 90 120 112 L108 112 C111 94 108 86 99 77 C85 63 81 47 84 25 Z"/>

    <!-- Texto -->
    <text x="150" y="70"
      font-family="Arial, Helvetica, sans-serif"
      font-size="43"
      font-weight="800"
      letter-spacing="0">
      FRESENIUS
    </text>

    <text x="150" y="120"
      font-family="Arial, Helvetica, sans-serif"
      font-size="43"
      font-weight="800"
      letter-spacing="0">
      KABI
    </text>
  </g>
</svg>
